<?xml version="1.0" encoding="UTF-8"?>
<!-- Generated by Pixelmator Pro 3.6.17 -->
<svg width="798" height="798" viewBox="0 0 798 798" xmlns="http://www.w3.org/2000/svg">
    <g id="Group">
        <path id="Path" fill="#000000" stroke="none" d="M 362 26.399963 C 355.600006 28.400024 347.600006 32.799988 345.200012 36.799988 C 339.200012 44.799988 338.400024 96.399963 344 100 C 348.399994 102.799988 346.399994 120.399963 335.600006 170.799988 C 331.200012 190 328 220.399963 328 238.399963 C 328 256 326.400024 273.599976 324.399994 277.600037 C 322 281.200012 312 289.600006 302 296.399994 C 291.600006 302.799988 278.800018 315.199982 273.600006 324.399994 L 264 340.800018 L 264 521.199951 C 264 637.200012 262.399994 702.400024 260 704 C 258 705.200012 256 714.799988 256 724.400024 C 256 739.200012 258.399994 744.799988 267.200012 754 C 282.399994 769.200012 305.600006 772 404.000031 772 C 493.600037 771.599976 523.600037 766.799988 536 751.200012 C 544.399963 740.400024 547.200012 710.799988 540 703.599976 C 537.599976 701.200012 535.600037 628 535.200012 516 L 534 332 L 524.799988 319.600006 C 519.599976 312.799988 507.200012 302 497.600006 296 C 487.600037 289.600006 478 281.200012 475.600037 277.600037 C 473.600006 273.599976 472 256 472 238.399963 C 472 220.399963 468.399994 190 464.000031 170.799988 C 455.600006 132.799988 454.800018 120 458.400024 75.200012 C 461.200012 40.799988 457.199982 32 436.800018 25.999939 C 419.200012 21.200012 378.800018 21.200012 362 26.399963 Z M 433.600037 42 C 442.800018 45.200012 444 48 444 66 C 444 85.600037 444 85.600037 433.600037 82 C 428.000031 79.600037 412.800018 78 400 78 C 387.200012 78 372 79.600037 366.399994 82 C 356 85.600037 356 85.600037 356 65.599976 C 356 48.799988 357.200012 45.200012 365.199982 42 C 377.199982 37.199951 421.199982 37.199951 433.600037 42 Z M 426.399994 88.399963 C 433.600037 90.399963 435.600006 94.799988 438 113.200012 C 439.199982 126 443.200012 147.599976 446.800018 162 C 450 176.400024 454 209.200012 455.600006 235.600037 L 458.400024 282.799988 L 473.200012 295.600006 C 481.600037 302.399994 495.600006 314.399994 504.399994 322.399963 L 520 337.199982 L 520 517.200012 L 520 697.599976 L 505.199982 700.799988 C 485.600006 704.799988 314.400024 704.799988 294.800018 700.799988 L 279.600006 697.599976 L 280.799988 515.599976 L 282 333.199982 L 297.200012 320.799988 C 305.600006 313.600006 319.600006 301.600006 328.399994 293.600006 L 344 278.799988 L 344 244.399963 C 344 225.200012 347.199982 194.799988 351.600006 174.799988 C 356 155.599976 360.800018 128.799988 362.400024 115.199951 C 364.399994 97.199951 366.800018 90 371.600006 88.799988 C 381.600006 86 416.800018 86 426.399994 88.399963 Z M 400 720 C 442.800018 720 489.200012 718.400024 503.200012 716.799988 L 528 713.599976 L 528 724.799988 C 528 740.799988 523.200012 746 505.600037 750.400024 C 478.800018 756.799988 365.199982 759.200012 324.399994 754.400024 C 277.200012 748.400024 272 745.599976 272 727.599976 L 272 713.599976 L 297.200012 716.799988 C 310.799988 718.400024 357.200012 720 400 720 Z"/>
    </g>
</svg>
