<svg xmlns="http://www.w3.org/2000/svg" xmlns:xlink="http://www.w3.org/1999/xlink" width="1000" height="1000" zoomAndPan="magnify" viewBox="0 0 375 375" preserveAspectRatio="xMidYMid meet" version="1.0">
  <defs>
    <clipPath id="c99bd78283">
      <path d="M 116 59.15625 L 259 59.15625 L 259 314 L 116 314 Z M 116 59.15625 " clip-rule="nonzero"/>
    </clipPath>
  </defs>
  <g clip-path="url(#c99bd78283)">
    <path fill="#d97706" d="M 138.445312 62.929688 C 138.148438 74.617188 137.0625 90.375 135.804688 101.304688 C 135.03125 108.09375 134.238281 113.769531 133.503906 117.824219 C 132.050781 125.84375 131.484375 128.15625 127.207031 143.871094 C 123.324219 158.117188 122.308594 162.027344 120.640625 169.144531 C 119.738281 173 118.1875 181.414062 117.734375 184.816406 C 116.519531 194.09375 116.152344 203.144531 116.832031 207.902344 C 117.605469 213.507812 119.203125 218.519531 121.886719 223.839844 C 124.765625 229.585938 128.152344 234.246094 132.445312 238.425781 C 136.3125 242.179688 139.195312 244.058594 148.175781 248.632812 C 155.035156 252.136719 157.28125 253.589844 158.496094 255.355469 C 159.015625 256.117188 159.046875 256.203125 159.046875 257.300781 C 159.046875 258.925781 158.875 259.265625 154.089844 267.339844 C 147.59375 278.324219 144.222656 286.246094 142.425781 294.703125 C 142.03125 296.609375 141.976562 297.117188 141.976562 299.179688 C 141.960938 301.183594 142.003906 301.664062 142.273438 302.597656 C 143.5 306.816406 146.535156 309.0625 153.441406 310.839844 C 160.921875 312.761719 170.847656 313.398438 191.09375 313.253906 C 201.601562 313.171875 204.453125 313.085938 209.589844 312.664062 C 217.722656 311.984375 223.414062 310.742188 227.453125 308.75 C 228.734375 308.117188 229.101562 307.847656 230.203125 306.746094 C 231.589844 305.347656 232.265625 304.21875 232.761719 302.425781 C 233.128906 301.128906 233.128906 297.640625 232.761719 295.789062 C 232.324219 293.589844 231.179688 289.195312 230.585938 287.460938 C 228.199219 280.5 225.617188 275.289062 219.207031 264.515625 C 216.960938 260.746094 215.972656 258.699219 215.902344 257.710938 C 215.789062 256.089844 216.382812 255.03125 218.230469 253.5625 C 219.714844 252.375 221.664062 251.261719 226.675781 248.703125 C 233.015625 245.472656 235.78125 243.890625 238.324219 242.027344 C 247.007812 235.644531 254.347656 224.320312 257.226562 212.84375 C 257.707031 210.9375 258.203125 207.703125 258.300781 205.796875 C 258.371094 204.695312 258.457031 204.058594 258.527344 204.171875 C 258.597656 204.285156 258.640625 203.144531 258.640625 201.476562 C 258.625 199.839844 258.570312 198.765625 258.511719 199.007812 C 258.386719 199.527344 258.398438 199.824219 258.230469 195.40625 C 257.976562 188.742188 256.648438 179.492188 254.699219 170.769531 C 253.0625 163.441406 252.738281 162.167969 248.066406 144.929688 C 244.011719 129.980469 243.492188 127.929688 242.542969 123.398438 C 241.441406 118.0625 240.371094 111.355469 239.59375 104.972656 C 239.4375 103.648438 239.242188 102.066406 239.171875 101.445312 C 238.109375 92.917969 236.96875 76.609375 236.601562 64.621094 L 236.429688 59.160156 L 138.546875 59.160156 Z M 222.847656 74.011719 C 222.890625 74.421875 223.003906 76.058594 223.074219 77.65625 C 223.753906 91.351562 225.488281 107.742188 227.453125 119.304688 C 228.949219 128.015625 229.964844 132.210938 235.402344 152.0625 C 237.347656 159.132812 237.617188 160.191406 238.957031 165.472656 C 241.527344 175.695312 242.898438 182.824219 243.746094 190.394531 C 244.167969 194.191406 244.308594 196.734375 244.308594 201.125 C 244.324219 205.304688 244.296875 205.769531 243.984375 207.40625 C 242.628906 214.59375 238.804688 221.964844 233.605469 227.414062 C 230.785156 230.390625 228.1875 232.128906 222.015625 235.222656 C 219.007812 236.730469 218.035156 237.15625 215.4375 238.003906 C 207.570312 240.613281 199.90625 242.011719 190.996094 242.449219 C 180.324219 242.972656 167.628906 241.050781 157.84375 237.453125 C 155.09375 236.433594 149.347656 233.527344 146.550781 231.71875 C 144.785156 230.589844 143.8125 229.8125 142.328125 228.386719 C 136.933594 223.148438 132.644531 215.496094 131.230469 208.535156 C 130.636719 205.640625 130.554688 204.273438 130.636719 199.851562 C 130.851562 189.558594 132.503906 179.210938 136.257812 164.554688 C 137.527344 159.585938 137.640625 159.164062 140.691406 147.964844 C 144.558594 133.734375 145.351562 130.628906 146.410156 125.375 C 148.570312 114.6875 150.292969 100.878906 151.421875 85.417969 C 151.730469 81.027344 152.058594 75.605469 152.058594 74.589844 C 152.058594 74.109375 152.097656 73.628906 152.140625 73.503906 C 152.226562 73.292969 155.472656 73.277344 187.496094 73.277344 L 222.777344 73.277344 Z M 222.847656 74.011719 " />
  </g>
</svg> 